<svg width="4" height="6" viewBox="0 0 4 6" fill="none" xmlns="http://www.w3.org/2000/svg">
<path d="M3.66679 2.76588L0.996713 0.0958529C0.934958 0.0340485 0.85252 0 0.764618 0C0.676716 0 0.594278 0.0340485 0.532522 0.0958529L0.33589 0.292437C0.207939 0.420533 0.207939 0.628727 0.33589 0.756628L2.57802 2.99876L0.333402 5.24337C0.271646 5.30518 0.237549 5.38757 0.237549 5.47542C0.237549 5.56337 0.271646 5.64576 0.333402 5.70761L0.530034 5.90415C0.591839 5.96595 0.674228 6 0.76213 6C0.850032 6 0.93247 5.96595 0.994226 5.90415L3.66679 3.23168C3.72869 3.16968 3.76269 3.0869 3.7625 2.9989C3.76269 2.91056 3.72869 2.82783 3.66679 2.76588Z" fill="white"/>
</svg>
