<svg width="6" height="14" viewBox="0 0 6 14" fill="none" xmlns="http://www.w3.org/2000/svg">
<path d="M5.83512 2.38349L3.86637 0.414742C3.64699 0.195086 3.29037 0.195086 3.07099 0.414742L1.10224 2.38349C0.882586 2.60315 0.882586 2.95921 1.10224 3.17887C1.32162 3.39852 1.67824 3.39852 1.89762 3.17887L2.90618 2.1703V13.1874C2.90618 13.4979 3.15818 13.7499 3.46868 13.7499C3.77918 13.7499 4.03118 13.4979 4.03118 13.1874V2.1703L5.03974 3.17887C5.14943 3.28884 5.29343 3.34368 5.43743 3.34368C5.58143 3.34368 5.72543 3.28884 5.83512 3.17887C6.05477 2.95921 6.05477 2.60315 5.83512 2.38349Z" fill="white"/>
</svg>
