<svg width="11" height="7" viewBox="0 0 11 7" fill="none" xmlns="http://www.w3.org/2000/svg">
<path d="M5.07078 0.447434L0.17573 5.34257C0.0624222 5.45579 -4.92822e-08 5.60693 -4.2238e-08 5.76808C-3.51938e-08 5.92924 0.0624222 6.08037 0.17573 6.19359L0.536134 6.55408C0.770978 6.78866 1.15267 6.78866 1.38715 6.55408L5.49772 2.44352L9.61285 6.55864C9.72616 6.67186 9.8772 6.73437 10.0383 6.73437C10.1995 6.73437 10.3506 6.67186 10.464 6.55864L10.8243 6.19815C10.9376 6.08484 11 5.9338 11 5.77264C11 5.61149 10.9376 5.46035 10.8243 5.34713L5.92475 0.447434C5.81108 0.333947 5.65932 0.271615 5.49799 0.271972C5.33603 0.271615 5.18436 0.333947 5.07078 0.447434Z" fill="#FF6C3D"/>
</svg>
