<svg width="20" height="18" viewBox="0 0 20 18" fill="none" xmlns="http://www.w3.org/2000/svg">
<g opacity="0.55">
<path d="M17.4124 0.175781H15.6477V1.94049C15.6477 2.29343 15.3536 2.52872 15.0595 2.52872C14.7653 2.52872 14.4712 2.29343 14.4712 1.94049V0.175781H5.05946V1.94049C5.05946 2.29343 4.76534 2.52872 4.47122 2.52872C4.1771 2.52872 3.88298 2.29343 3.88298 1.94049V0.175781H2.11828C1.23593 0.175781 0.588867 0.940487 0.588867 1.94049V4.05813H19.4124V1.94049C19.4124 0.940487 18.3536 0.175781 17.4124 0.175781ZM0.588867 5.29343V16.0581C0.588867 17.117 1.23593 17.8228 2.1771 17.8228H17.4712C18.4124 17.8228 19.4712 17.0581 19.4712 16.0581V5.29343H0.588867ZM5.82416 15.1758H4.4124C4.1771 15.1758 3.94181 14.9993 3.94181 14.7052V13.2346C3.94181 12.9993 4.11828 12.764 4.4124 12.764H5.88299C6.11828 12.764 6.35357 12.9405 6.35357 13.2346V14.7052C6.29475 14.9993 6.11828 15.1758 5.82416 15.1758ZM5.82416 9.88166H4.4124C4.1771 9.88166 3.94181 9.70519 3.94181 9.41108V7.94049C3.94181 7.70519 4.11828 7.4699 4.4124 7.4699H5.88299C6.11828 7.4699 6.35357 7.64637 6.35357 7.94049V9.41108C6.29475 9.70519 6.11828 9.88166 5.82416 9.88166ZM10.53 15.1758H9.05946C8.82416 15.1758 8.58887 14.9993 8.58887 14.7052V13.2346C8.58887 12.9993 8.76534 12.764 9.05946 12.764H10.53C10.7653 12.764 11.0006 12.9405 11.0006 13.2346V14.7052C11.0006 14.9993 10.8242 15.1758 10.53 15.1758ZM10.53 9.88166H9.05946C8.82416 9.88166 8.58887 9.70519 8.58887 9.41108V7.94049C8.58887 7.70519 8.76534 7.4699 9.05946 7.4699H10.53C10.7653 7.4699 11.0006 7.64637 11.0006 7.94049V9.41108C11.0006 9.70519 10.8242 9.88166 10.53 9.88166ZM15.2359 15.1758H13.7653C13.53 15.1758 13.2948 14.9993 13.2948 14.7052V13.2346C13.2948 12.9993 13.4712 12.764 13.7653 12.764H15.2359C15.4712 12.764 15.7065 12.9405 15.7065 13.2346V14.7052C15.7065 14.9993 15.53 15.1758 15.2359 15.1758ZM15.2359 9.88166H13.7653C13.53 9.88166 13.2948 9.70519 13.2948 9.41108V7.94049C13.2948 7.70519 13.4712 7.4699 13.7653 7.4699H15.2359C15.4712 7.4699 15.7065 7.64637 15.7065 7.94049V9.41108C15.7065 9.70519 15.53 9.88166 15.2359 9.88166Z" fill="white"/>
</g>
</svg>
