<svg width="20" height="18" viewBox="0 0 20 18" fill="none" xmlns="http://www.w3.org/2000/svg">
<path d="M19.4141 6.07031H17.3519L12.8404 0.430853C12.6382 0.178235 12.2695 0.137181 12.0168 0.339368C11.7641 0.541517 11.7231 0.910228 11.9253 1.16292L15.8512 6.07031H4.14879L8.07473 1.16292C8.27687 0.910228 8.2359 0.541478 7.98324 0.339368C7.73051 0.137181 7.3618 0.178196 7.15969 0.430853L2.64809 6.07031H0.585938C0.262344 6.07031 0 6.33265 0 6.65624V7.82812C0 8.15171 0.262344 8.41406 0.585938 8.41406H19.4141C19.7377 8.41406 20 8.15171 20 7.82812V6.65624C20 6.33265 19.7377 6.07031 19.4141 6.07031Z" fill="white"/>
<path d="M3.53816 17.3641C3.61004 17.6157 3.83996 17.7891 4.10156 17.7891H15.8984C16.16 17.7891 16.39 17.6157 16.4618 17.3641L18.6841 9.58594H1.31586L3.53816 17.3641ZM12.6837 14.7631L13.2697 11.2475C13.3229 10.9282 13.6248 10.7125 13.944 10.7658C14.2632 10.819 14.4788 11.1209 14.4256 11.4401L13.8397 14.9557C13.7919 15.2423 13.5437 15.4455 13.2624 15.4455C13.2304 15.4455 13.198 15.4429 13.1654 15.4374C12.8462 15.3842 12.6305 15.0823 12.6837 14.7631ZM9.41406 11.3438C9.41406 11.0202 9.6764 10.7578 10 10.7578C10.3236 10.7578 10.5859 11.0202 10.5859 11.3438V14.8594C10.5859 15.183 10.3236 15.4453 10 15.4453C9.6764 15.4453 9.41406 15.183 9.41406 14.8594V11.3438ZM6.09508 10.7658C6.41433 10.7127 6.71617 10.9282 6.76937 11.2475L7.35531 14.7631C7.40851 15.0823 7.19289 15.3842 6.87367 15.4374C6.84109 15.4428 6.80863 15.4455 6.77664 15.4455C6.49535 15.4455 6.24715 15.2424 6.19937 14.9557L5.61343 11.4401C5.56023 11.1209 5.77586 10.819 6.09508 10.7658Z" fill="white"/>
</svg>
