<svg width="25" height="25" viewBox="0 0 25 25" fill="none" xmlns="http://www.w3.org/2000/svg">
<path d="M21.7042 19.5087V17.9908C21.7042 12.9148 17.5746 8.78516 12.4986 8.78516C7.42261 8.78516 3.29297 12.9148 3.29297 17.9908V19.5087H5.12257V17.9908C5.12257 13.9236 8.43145 10.6148 12.4986 10.6148C16.5658 10.6148 19.8746 13.9236 19.8746 17.9908V19.5087H21.7042Z" fill="white"/>
<path d="M12.5 5.49219C9.16119 5.49219 6.02213 6.79242 3.66121 9.15334C1.30023 11.5143 0 14.6533 0 17.9922V19.5101H1.8296V17.9922C1.8296 12.1085 6.61634 7.32179 12.5 7.32179C18.3837 7.32179 23.1704 12.1085 23.1704 17.9922V19.5101H25V17.9922C25 14.6533 23.6998 11.5143 21.3388 9.15334C18.9779 6.79242 15.8389 5.49219 12.5 5.49219Z" fill="white"/>
<path d="M18.4123 19.5073V17.9894C18.4123 14.7299 15.7605 12.0781 12.5011 12.0781C9.24162 12.0781 6.58984 14.7299 6.58984 17.9894V19.5073H8.41945V17.9894C8.41945 15.7387 10.2505 13.9077 12.5011 13.9077C14.7518 13.9077 16.5828 15.7387 16.5828 17.9894V19.5073H18.4123Z" fill="white"/>
</svg>
