<svg width="20" height="20" viewBox="0 0 20 20" fill="none" xmlns="http://www.w3.org/2000/svg">
<g clip-path="url(#clip0_196_6196)">
<path d="M18.4248 4.06027C17.8033 3.43875 18.1347 3.1073 17.5132 2.48578C16.8918 1.86434 16.5603 2.19582 15.9389 1.57438C15.3174 0.95293 15.6489 0.621445 15.0274 0L14.9711 0.0563281C13.5982 1.42926 13.5982 3.65523 14.9711 5.02816C16.344 6.40109 18.57 6.40109 19.9429 5.02816L19.9993 4.97184C19.3777 4.35039 19.0463 4.6818 18.4248 4.06027Z" fill="white"/>
<path d="M5.02816 14.9711C3.65523 13.5982 1.42926 13.5982 0.0563281 14.9711L0 15.0274C0.621445 15.6488 0.952891 15.3174 1.57438 15.9388C2.19582 16.5602 1.86434 16.8917 2.48578 17.5131C3.1073 18.1347 3.43875 17.8032 4.06027 18.4247C4.6818 19.0462 4.35035 19.3777 4.97184 19.9992L5.02816 19.9429C6.40109 18.57 6.40109 16.344 5.02816 14.9711Z" fill="white"/>
<path d="M14.1423 5.85647C12.552 4.26607 10.2749 3.78147 8.26562 4.40182C10.1876 6.39283 10.3879 8.19295 10.5814 9.93498C10.7651 11.5878 10.9386 13.1488 12.6922 14.9025L12.8882 15.0985C13.3371 14.8438 13.7596 14.5255 14.1423 14.1429C16.4306 11.8546 16.4306 8.14467 14.1423 5.85647Z" fill="white"/>
<path d="M9.41767 10.062C9.23403 8.40926 9.06056 6.84816 7.30692 5.09449L7.11091 4.89844C6.66204 5.15312 6.23946 5.47145 5.85681 5.8541C3.56856 8.14234 3.56856 11.8523 5.85681 14.1405C7.4472 15.7309 9.72423 16.2155 11.7335 15.5952C9.81153 13.6041 9.61122 11.804 9.41767 10.062Z" fill="white"/>
</g>
<defs>
<clipPath id="clip0_196_6196">
<rect width="20" height="20" fill="white"/>
</clipPath>
</defs>
</svg>
