<svg width="19" height="19" viewBox="0 0 19 19" fill="none" xmlns="http://www.w3.org/2000/svg">
<g clip-path="url(#clip0_196_6096)">
<path d="M11.7335 3.19141L1.27946 13.6462C1.22686 13.699 1.18889 13.7656 1.1708 13.8372L0.0120694 18.4881C-0.0225916 18.6281 0.0185495 18.777 0.120724 18.8791C0.198033 18.9565 0.303373 18.9993 0.411123 18.9993C0.444127 18.9993 0.477884 18.9952 0.510736 18.9869L5.16164 17.828C5.23413 17.8099 5.29999 17.7721 5.35258 17.7195L15.8076 7.26543L11.7335 3.19141Z" fill="#FF6C3D"/>
<path d="M18.3978 1.76628L17.2341 0.602571C16.4563 -0.175192 15.1008 -0.174439 14.3239 0.602571L12.8984 2.02804L16.9723 6.10192L18.3978 4.67645C18.7863 4.28809 19.0003 3.77119 19.0003 3.22144C19.0003 2.67168 18.7863 2.15478 18.3978 1.76628Z" fill="#FF6C3D"/>
</g>
<defs>
<clipPath id="clip0_196_6096">
<rect width="19" height="19" fill="white"/>
</clipPath>
</defs>
</svg>
