<svg width="36" height="36" viewBox="0 0 36 36" fill="none" xmlns="http://www.w3.org/2000/svg">
<path d="M23.3263 19.4922L20.3113 22.5175C19.0886 23.7444 16.9373 23.7708 15.6882 22.5175L12.673 19.4922L1.84375 30.3566C2.24685 30.543 2.6913 30.6542 3.1638 30.6542H32.8357C33.3082 30.6542 33.7525 30.5431 34.1554 30.3567L23.3263 19.4922Z" fill="#FF6C3D"/>
<path d="M32.8355 5.34375H3.16366C2.69116 5.34375 2.24671 5.45498 1.84375 5.64138L13.4156 17.2516C13.4163 17.2524 13.4173 17.2525 13.418 17.2533C13.4188 17.2541 13.4189 17.2551 13.4189 17.2551L17.1816 21.0302C17.5812 21.4298 18.4181 21.4298 18.8177 21.0302L22.5796 17.2557C22.5796 17.2557 22.5805 17.2541 22.5813 17.2533C22.5813 17.2533 22.583 17.2524 22.5838 17.2516L34.1553 5.64131C33.7523 5.45484 33.308 5.34375 32.8355 5.34375Z" fill="#FF6C3D"/>
<path d="M0.336516 7.11719C0.127969 7.53892 0 8.00706 0 8.50853V27.4929C0 27.9944 0.127828 28.4625 0.336445 28.8842L11.1845 18.0011L0.336516 7.11719Z" fill="#FF6C3D"/>
<path d="M35.6633 7.11719L24.8154 18.0012L35.6633 28.8845C35.8719 28.4628 35.9998 27.9947 35.9998 27.493V8.50867C35.9998 8.00706 35.8719 7.53892 35.6633 7.11719Z" fill="#FF6C3D"/>
</svg>
