<svg width="38" height="30" viewBox="0 0 38 30" fill="none" xmlns="http://www.w3.org/2000/svg">
<path d="M32.1686 2.92055C29.7466 1.80927 27.1494 0.990487 24.4338 0.521499C24.3844 0.512444 24.335 0.535081 24.3095 0.58028C23.9755 1.1744 23.6055 1.94939 23.3464 2.55858C20.4257 2.12128 17.5198 2.12128 14.659 2.55858C14.3998 1.93589 14.0164 1.1744 13.6809 0.58028C13.6554 0.536565 13.606 0.513929 13.5566 0.521499C10.8425 0.988929 8.24533 1.80771 5.82179 2.92055C5.80078 2.9296 5.78282 2.94467 5.77087 2.96426C0.84453 10.3242 -0.505064 17.5032 0.156968 24.5932C0.159936 24.6278 0.179456 24.661 0.206397 24.6822C3.45666 27.0691 6.60517 28.5181 9.69512 29.4787C9.74454 29.4938 9.79694 29.4757 9.82841 29.435C10.5593 28.4368 11.2109 27.3843 11.7695 26.2775C11.8025 26.2127 11.771 26.1357 11.7036 26.1101C10.6701 25.7181 9.68606 25.2401 8.7394 24.6973C8.66451 24.6536 8.6585 24.5465 8.72745 24.4952C8.92666 24.3459 9.12593 24.1906 9.31616 24.0338C9.35059 24.0051 9.39854 23.9991 9.43899 24.0172C15.6579 26.8565 22.3907 26.8565 28.5362 24.0172C28.5767 23.9976 28.6246 24.0036 28.6605 24.0322C28.8508 24.189 29.05 24.3459 29.2507 24.4951C29.3196 24.5464 29.3151 24.6535 29.2403 24.6972C28.2936 25.2506 27.3095 25.718 26.2745 26.1086C26.2072 26.1342 26.1772 26.2126 26.2102 26.2774C26.7809 27.3827 27.4324 28.4352 28.1498 29.4334C28.1798 29.4756 28.2337 29.4938 28.2831 29.4786C31.3881 28.5181 34.5366 27.069 37.7868 24.6821C37.8153 24.661 37.8333 24.6293 37.8363 24.5946C38.6286 16.3979 36.5092 9.27768 32.2179 2.96575C32.2075 2.94467 32.1896 2.9296 32.1686 2.92055ZM12.6984 20.2761C10.8261 20.2761 9.28328 18.5572 9.28328 16.4461C9.28328 14.3351 10.7961 12.6161 12.6984 12.6161C14.6155 12.6161 16.1434 14.3502 16.1134 16.4461C16.1134 18.5572 14.6005 20.2761 12.6984 20.2761ZM25.325 20.2761C23.4527 20.2761 21.91 18.5572 21.91 16.4461C21.91 14.3351 23.4228 12.6161 25.325 12.6161C27.2422 12.6161 28.77 14.3502 28.7401 16.4461C28.7401 18.5572 27.2423 20.2761 25.325 20.2761Z" fill="white"/>
</svg>
