<svg width="20" height="22" viewBox="0 0 20 22" fill="none" xmlns="http://www.w3.org/2000/svg">
<path d="M7.22887 20.9706C7.75207 21.3835 8.48355 21.2717 8.87281 20.754C12.171 16.3715 11.9298 13.1187 11.9656 12.9791C12.0828 12.9475 15.3169 13.1547 19.5442 9.80611C20.0541 9.40258 20.1531 8.64923 19.7554 8.12011C19.3798 7.60946 18.6383 7.4853 18.112 7.90289C16.4977 9.18192 12.2501 11.5681 10.8286 10.1126C9.92336 9.18385 10.6644 5.72007 12.9818 2.63981C13.3757 2.1169 13.2822 1.34968 12.7712 0.953812C12.2605 0.549684 11.5239 0.642901 11.1273 1.17042C7.82906 5.55291 8.07027 8.80645 8.03449 8.94608C7.91726 8.97762 4.68308 8.77046 0.455779 12.1191C-0.0508222 12.52 -0.155353 13.2723 0.244647 13.8051C0.625662 14.3156 1.36687 14.4327 1.88801 14.0217C3.50504 12.7422 7.7541 10.3585 9.17148 11.8126C10.0767 12.7414 9.3357 16.2043 7.01828 19.2852C6.62277 19.81 6.71859 20.5668 7.22887 20.9706Z" fill="white"/>
</svg>
