<svg width="17" height="17" viewBox="0 0 17 17" fill="none" xmlns="http://www.w3.org/2000/svg">
<path d="M6.72982 8.4974V15.5807H3.01107C2.4251 15.5807 1.94857 15.1042 1.94857 14.5182V8.46163C2.06296 8.485 2.18143 8.4974 2.30273 8.4974H6.72982ZM7.43815 8.4974V15.5807H9.56315V8.4974H7.43815ZM14.6986 8.4974H10.2715V15.5807H13.9902C14.5762 15.5807 15.0527 15.1042 15.0527 14.5182V8.46163C14.9383 8.485 14.8199 8.4974 14.6986 8.4974ZM15.7611 5.3099V6.72656C15.7611 7.31253 15.2845 7.78906 14.6986 7.78906H2.30273C1.71677 7.78906 1.24023 7.31253 1.24023 6.72656V5.3099C1.24023 4.72393 1.71677 4.2474 2.30273 4.2474H5.67068C5.44738 3.95096 5.31315 3.58369 5.31315 3.1849C5.31315 2.20846 6.10755 1.41406 7.08398 1.41406C7.66358 1.41406 8.17747 1.69527 8.50065 2.127C8.82401 1.69527 9.33772 1.41406 9.91732 1.41406C10.8938 1.41406 11.6882 2.20846 11.6882 3.1849C11.6882 3.58369 11.5539 3.95096 11.3306 4.2474H14.6986C15.2845 4.2474 15.7611 4.72393 15.7611 5.3099ZM8.85482 3.1849V4.2474H9.91732C10.5033 4.2474 10.9798 3.77086 10.9798 3.1849C10.9798 2.59893 10.5033 2.1224 9.91732 2.1224C9.33135 2.1224 8.85482 2.59893 8.85482 3.1849ZM7.08398 4.2474H8.14648V3.1849C8.14648 2.59893 7.66995 2.1224 7.08398 2.1224C6.49802 2.1224 6.02148 2.59893 6.02148 3.1849C6.02148 3.77086 6.49802 4.2474 7.08398 4.2474Z" fill="white"/>
</svg>
