<svg id="Glyph_icon" height="512" viewBox="0 0 64 64" width="512" xmlns="http://www.w3.org/2000/svg" data-name="Glyph icon"><path d="m42.23 44.66v10.22a.4.4 0 0 1 -.4.4h-19.66a.4.4 0 0 1 -.4-.4v-10.22a.4.4 0 0 1 .4-.41h19.66a.4.4 0 0 1 .4.41z"/><path d="m41.72 36.02h-19.12a13.244 13.244 0 0 1 -10.81-5.67v28.38a4.274 4.274 0 0 0 4.27 4.27h31.88a4.274 4.274 0 0 0 4.27-4.27v-27.91a13.235 13.235 0 0 1 -10.49 5.2zm2.51 18.86a2.407 2.407 0 0 1 -2.4 2.4h-19.66a2.407 2.407 0 0 1 -2.4-2.4v-10.22a2.409 2.409 0 0 1 2.4-2.41h19.66a2.409 2.409 0 0 1 2.4 2.41z"/><path d="m54.83 15.47a42.708 42.708 0 0 1 -2.73 11.54 11.178 11.178 0 0 1 -10.38 7.01h-19.12a11.267 11.267 0 0 1 -10.42-7.13 44.772 44.772 0 0 1 -2.99-11.28 5.308 5.308 0 0 1 4.03-5.71 79.8 79.8 0 0 1 37.57-.01 5.3 5.3 0 0 1 4.04 5.58z"/><path d="m10.07 60.57h-1.35a2.533 2.533 0 0 1 -2.53-2.53v-5.26a10.575 10.575 0 0 1 3.6-7.99v13.94a6.209 6.209 0 0 0 .28 1.84z"/><path d="m57.81 52.78v5.26a2.533 2.533 0 0 1 -2.53 2.53h-1.34a6.548 6.548 0 0 0 .27-1.84v-13.94a10.575 10.575 0 0 1 3.6 7.99z"/><path d="m23.38 6.12a77.583 77.583 0 0 0 -8.44 1.34l-.92-3.58a1 1 0 0 1 .72-1.22l6.3-1.63a.985.985 0 0 1 .75.11.949.949 0 0 1 .46.61z"/><path d="m49.99 3.88-.92 3.57a77 77 0 0 0 -8.45-1.34l1.13-4.36a.949.949 0 0 1 .46-.61.943.943 0 0 1 .75-.11l6.32 1.63a1.039 1.039 0 0 1 .61.46 1.007 1.007 0 0 1 .1.76z"/></svg>