<svg width="23" height="21" viewBox="0 0 23 21" fill="none" xmlns="http://www.w3.org/2000/svg">
<path fill-rule="evenodd" clip-rule="evenodd" d="M5.2558 20.3806H2.11637C1.81995 20.3806 1.57742 20.138 1.57742 19.8416V16.1902H0.539924C0.337815 16.1902 0.14918 16.0824 0.0548624 15.8938C-0.0259812 15.7051 -0.0125072 15.4895 0.108758 15.3279L3.26166 11.1375C3.35598 11.0027 3.51766 10.9219 3.69282 10.9219C3.85451 10.9219 4.0162 11.0027 4.12399 11.1375L7.22299 15.2874C7.31731 15.3817 7.37121 15.5165 7.37121 15.6512C7.37121 15.9477 7.12868 16.1902 6.83225 16.1902H5.79476V19.8416C5.79476 20.138 5.55223 20.3806 5.2558 20.3806Z" fill="white"/>
<path fill-rule="evenodd" clip-rule="evenodd" d="M13.0702 20.3789H9.91725C9.62083 20.3789 9.39177 20.1364 9.39177 19.8399V14.6121H8.35428C8.15217 14.6121 7.96353 14.4908 7.86922 14.3156C7.7749 14.127 7.80185 13.9114 7.92311 13.7497L11.0625 9.55933C11.1703 9.42459 11.332 9.34375 11.4937 9.34375C11.6689 9.34375 11.8306 9.42459 11.9249 9.55933L15.0373 13.7093C15.1317 13.8036 15.1856 13.9249 15.1856 14.0731C15.1856 14.3695 14.943 14.6121 14.6466 14.6121H13.6091V19.8399C13.6091 20.1364 13.3666 20.3789 13.0702 20.3789Z" fill="white"/>
<path fill-rule="evenodd" clip-rule="evenodd" d="M20.8878 20.3811H17.7349C17.4385 20.3811 17.196 20.1386 17.196 19.8422V13.0378H16.1585C15.9564 13.0378 15.7677 12.9166 15.6869 12.7414C15.5926 12.5528 15.6061 12.3372 15.7273 12.1755L18.8802 7.98511C18.9745 7.85037 19.1362 7.76953 19.3114 7.76953C19.4731 7.76953 19.6348 7.85037 19.7425 7.98511L22.855 12.1351C22.9359 12.2294 23.0032 12.3507 23.0032 12.4989C23.0032 12.7953 22.7607 13.0378 22.4643 13.0378C22.4508 13.0378 22.4508 13.0378 22.4508 13.0378H21.4268V19.8422C21.4268 20.1386 21.1843 20.3811 20.8878 20.3811Z" fill="white"/>
<path fill-rule="evenodd" clip-rule="evenodd" d="M2.04658 10.5347C1.92531 10.5347 1.81752 10.4943 1.7232 10.4269C1.56152 10.3057 1.4672 10.0901 1.50762 9.88799L1.80405 8.33849L0.658764 7.26057C0.510551 7.11236 0.443181 6.89678 0.510551 6.69467C0.577921 6.50603 0.753082 6.35782 0.955191 6.33087L2.53164 6.12876L3.19186 4.70053C3.28618 4.51189 3.47482 4.39062 3.6904 4.39062C3.89251 4.39062 4.08114 4.51189 4.17546 4.70053L4.84916 6.12876L6.41213 6.33087C6.61424 6.35782 6.7894 6.50603 6.85677 6.69467C6.92414 6.89678 6.85677 7.11236 6.70856 7.26057L5.56327 8.33849L5.8597 9.88799C5.90012 10.0901 5.80581 10.3057 5.64412 10.4269C5.46896 10.5482 5.25337 10.5617 5.06474 10.4674L3.6904 9.69935L2.30258 10.4674C2.22174 10.5078 2.12742 10.5347 2.04658 10.5347Z" fill="white"/>
<path fill-rule="evenodd" clip-rule="evenodd" d="M9.8517 8.76911C9.74391 8.76911 9.63612 8.72869 9.5418 8.66132C9.36664 8.54006 9.2858 8.32447 9.32622 8.12236L9.62265 6.57286L8.47736 5.49495C8.31567 5.34673 8.26178 5.13115 8.32915 4.92904C8.39652 4.74041 8.57168 4.59219 8.77379 4.56525L10.3368 4.37661L11.0105 2.9349C11.1048 2.74627 11.2934 2.625 11.4955 2.625C11.7111 2.625 11.8997 2.74627 11.9806 2.9349L12.6543 4.37661L14.2173 4.56525C14.4328 4.59219 14.608 4.74041 14.6754 4.92904C14.7293 5.13115 14.6754 5.34673 14.5272 5.49495L13.3684 6.57286L13.6648 8.12236C13.7052 8.32447 13.6244 8.54006 13.4627 8.66132C13.2876 8.78259 13.0585 8.79606 12.8833 8.70174L11.4955 7.93373L10.1212 8.70174C10.0403 8.74216 9.94602 8.76911 9.8517 8.76911Z" fill="white"/>
<path fill-rule="evenodd" clip-rule="evenodd" d="M20.9522 6.74568C20.8578 6.74568 20.777 6.71873 20.6961 6.67831L19.3083 5.91029L17.9205 6.67831C17.7454 6.77262 17.5163 6.75915 17.3411 6.63788C17.1795 6.51662 17.0986 6.30104 17.139 6.09893L17.4355 4.54942L16.2767 3.47151C16.1285 3.3233 16.0746 3.10771 16.142 2.9056C16.1959 2.71697 16.371 2.56876 16.5866 2.54181L18.1496 2.3397L18.8233 0.911463C18.9041 0.722828 19.0927 0.601562 19.3083 0.601562C19.5104 0.601562 19.6991 0.722828 19.7934 0.911463L20.4671 2.3397L22.0301 2.54181C22.2456 2.56876 22.4073 2.71697 22.4747 2.9056C22.5421 3.10771 22.4882 3.3233 22.34 3.47151L21.1812 4.54942L21.4776 6.09893C21.5181 6.30104 21.4372 6.51662 21.2621 6.63788C21.1677 6.70525 21.0599 6.74568 20.9522 6.74568Z" fill="white"/>
</svg>
