<svg width="19" height="19" viewBox="0 0 19 19" fill="none" xmlns="http://www.w3.org/2000/svg">
<g clip-path="url(#clip0_196_6237)">
<path d="M18.8734 3.55409L15.4409 0.126519C15.272 -0.0421731 14.9984 -0.0421731 14.8294 0.126519C14.6605 0.295212 14.6605 0.568472 14.8294 0.737124L15.348 1.25498L12.5 4.09891L10.6842 2.2856C10.5152 2.11691 10.2416 2.11691 10.0727 2.2856C9.90375 2.45429 9.90375 2.72755 10.0727 2.8962L11.0642 3.88638L2.7213 12.2174C2.64021 12.2984 2.59463 12.408 2.59463 12.5228C2.59463 13.4386 2.92667 14.2702 3.45926 14.9351L0.126702 18.2629C-0.0422339 18.4316 -0.0422339 18.7049 0.126702 18.8735C0.211149 18.9579 0.321789 19 0.432429 19C0.543069 19 0.653709 18.9579 0.738157 18.8735L4.07072 15.5457C4.73658 16.0776 5.56936 16.4091 6.48646 16.4091C6.60131 16.4091 6.71114 16.3636 6.79218 16.2826L15.1351 7.95156L16.1266 8.94169C16.2111 9.02601 16.3217 9.0682 16.4324 9.0682C16.543 9.0682 16.6536 9.02601 16.7381 8.94169C16.907 8.77299 16.907 8.49974 16.7381 8.33108L14.8547 6.45033L17.7026 3.6064L18.2617 4.16474C18.3462 4.24906 18.4568 4.29125 18.5675 4.29125C18.6781 4.29125 18.7887 4.24906 18.8732 4.16474C19.0423 3.996 19.0423 3.72274 18.8734 3.55409ZM5.48717 13.2599C5.40285 13.3442 5.29233 13.3864 5.18185 13.3864C5.07137 13.3864 4.9609 13.3442 4.87653 13.2599L4.1027 12.4861C3.934 12.3174 3.934 12.0441 4.1027 11.8754C4.27139 11.7068 4.54465 11.7068 4.7133 11.8754L5.48713 12.6493C5.65583 12.8179 5.65583 13.0912 5.48717 13.2599ZM6.78263 11.1008C6.6983 11.1851 6.58779 11.2273 6.47731 11.2273C6.36683 11.2273 6.25635 11.1851 6.17198 11.1008L5.82998 10.7588C5.66129 10.5901 5.66129 10.3168 5.82998 10.1482C5.99868 9.97947 6.27194 9.97947 6.44059 10.1482L6.78259 10.4902C6.95128 10.6589 6.95128 10.9321 6.78263 11.1008ZM8.94171 9.80531C8.85738 9.88964 8.74686 9.93182 8.63639 9.93182C8.52591 9.93182 8.41543 9.88964 8.33106 9.80531L7.55723 9.03148C7.38854 8.86279 7.38854 8.58953 7.55723 8.42087C7.72592 8.25218 7.99918 8.25218 8.16784 8.42087L8.94167 9.19471C9.1104 9.3634 9.1104 9.63666 8.94171 9.80531ZM10.2372 7.64623C10.1528 7.73056 10.0423 7.77274 9.93184 7.77274C9.82136 7.77274 9.71089 7.73056 9.62652 7.64623L9.28452 7.30423C9.11583 7.13554 9.11583 6.86228 9.28452 6.69363C9.45321 6.52493 9.72647 6.52493 9.89512 6.69363L10.2371 7.03563C10.4059 7.20428 10.4059 7.47754 10.2372 7.64623Z" fill="white"/>
</g>
<defs>
<clipPath id="clip0_196_6237">
<rect width="19" height="19" fill="white"/>
</clipPath>
</defs>
</svg>
