<svg width="22" height="22" viewBox="0 0 22 22" fill="none" xmlns="http://www.w3.org/2000/svg">
<g clip-path="url(#clip0_196_6837)">
<path d="M7.22145 7.49586C11.2304 7.49586 14.2259 5.91106 14.2259 4.49399C14.2259 3.07706 11.2303 1.49219 7.22145 1.49219C3.21257 1.49219 0.217041 3.07706 0.217041 4.49399C0.217041 5.91106 3.21251 7.49586 7.22145 7.49586Z" fill="white" fill-opacity="0.25"/>
<path d="M7.2212 19.5033C7.80634 19.5033 8.36952 19.4693 8.90522 19.4073C8.45366 18.827 8.08023 18.183 7.80047 17.4914C7.60825 17.4978 7.41536 17.5023 7.22114 17.5023C4.93044 17.5023 2.7611 17.0484 1.11291 16.2243C0.788388 16.062 0.489749 15.8877 0.216797 15.7031V16.5015C0.216797 17.9184 3.21226 19.5033 7.2212 19.5033Z" fill="white" fill-opacity="0.25"/>
<path d="M7.22127 15.4994C7.24182 15.4994 7.26204 15.4991 7.28252 15.499C7.24149 15.171 7.22007 14.8369 7.22007 14.498C7.22007 14.1592 7.24142 13.8253 7.28252 13.4976C7.26204 13.4976 7.24176 13.4983 7.22127 13.4983C4.93057 13.4983 2.7613 13.0444 1.11305 12.2203C0.788455 12.058 0.489749 11.8837 0.216797 11.6992V12.4975C0.216864 13.9145 3.21233 15.4994 7.22127 15.4994Z" fill="white" fill-opacity="0.25"/>
<path d="M7.22127 11.4993C7.41983 11.4993 7.61572 11.4953 7.80914 11.4877C8.11979 10.7256 8.54433 10.0216 9.06195 9.39731C8.46267 9.46336 7.84677 9.49839 7.22127 9.49839C4.93057 9.49839 2.7613 9.0445 1.11305 8.22037C0.788455 8.05804 0.489749 7.88377 0.216797 7.69922V8.49759C0.216864 9.91459 3.21233 11.4993 7.22127 11.4993Z" fill="white" fill-opacity="0.25"/>
<path d="M10.2236 11.1799C9.7906 11.8309 9.48122 12.5707 9.32903 13.3658C9.25878 13.7322 9.22168 14.1104 9.22168 14.497C9.22168 14.7877 9.2429 15.0735 9.283 15.3533C9.38154 16.0406 9.59685 16.6904 9.90816 17.2824C10.2348 17.9037 10.667 18.4611 11.1809 18.9305C12.249 19.906 13.6694 20.5018 15.2265 20.5018C18.5375 20.5018 21.2313 17.808 21.2313 14.497C21.2313 11.1859 18.5375 8.49219 15.2265 8.49219C14.8843 8.49219 14.5487 8.52141 14.2219 8.57666C12.5574 8.85815 11.1237 9.82686 10.2236 11.1799Z" fill="white" fill-opacity="0.25"/>
</g>
<defs>
<clipPath id="clip0_196_6837">
<rect width="21.0145" height="21.0145" fill="white" transform="translate(0.216797 0.492188)"/>
</clipPath>
</defs>
</svg>
