<svg width="46" height="46" viewBox="0 0 46 46" fill="none" xmlns="http://www.w3.org/2000/svg">
<path d="M30.1875 10.0625H4.3125C3.16978 10.0658 2.07482 10.5213 1.26679 11.3293C0.45876 12.1373 0.00333732 13.2323 0 14.375L0 35.9375C0.00235513 36.829 0.27972 37.6981 0.794249 38.4262C1.30878 39.1542 2.03541 39.7058 2.875 40.0056V44.5625C2.87638 44.8333 2.95395 45.0983 3.09886 45.3271C3.24376 45.5559 3.45013 45.7392 3.69437 45.8563C3.88543 45.9543 4.09776 46.0037 4.3125 46C4.63753 46.0027 4.95311 45.8907 5.20375 45.6838L12.0031 40.25H30.1875C31.3302 40.2467 32.4252 39.7912 33.2332 38.9832C34.0412 38.1752 34.4967 37.0802 34.5 35.9375V14.375C34.4967 13.2323 34.0412 12.1373 33.2332 11.3293C32.4252 10.5213 31.3302 10.0658 30.1875 10.0625ZM17.25 34.5C16.9657 34.5 16.6878 34.4157 16.4514 34.2577C16.215 34.0998 16.0307 33.8753 15.9219 33.6126C15.8131 33.3499 15.7847 33.0609 15.8401 32.7821C15.8956 32.5032 16.0325 32.2471 16.2335 32.046C16.4346 31.845 16.6907 31.7081 16.9696 31.6526C17.2484 31.5972 17.5374 31.6256 17.8001 31.7344C18.0628 31.8432 18.2873 32.0275 18.4452 32.2639C18.6032 32.5003 18.6875 32.7782 18.6875 33.0625C18.6864 33.4434 18.5346 33.8084 18.2653 34.0777C17.9959 34.3471 17.6309 34.4989 17.25 34.5ZM19.9237 26.1625C19.525 26.3876 19.192 26.7129 18.9575 27.1062C18.723 27.4995 18.5953 27.9472 18.5869 28.405V28.5488C18.5869 28.93 18.4354 29.2956 18.1658 29.5652C17.8963 29.8348 17.5306 29.9863 17.1494 29.9863C16.7681 29.9863 16.4025 29.8348 16.1329 29.5652C15.8633 29.2956 15.7119 28.93 15.7119 28.5488V28.405C15.7176 27.4423 15.9771 26.4982 16.4642 25.6679C16.9513 24.8375 17.6488 24.1503 18.4862 23.6756C18.8427 23.4722 19.1475 23.1895 19.3772 22.8494C19.6068 22.5093 19.7551 22.1209 19.8105 21.7143C19.8659 21.3076 19.8269 20.8937 19.6966 20.5046C19.5664 20.1154 19.3483 19.7615 19.0592 19.4701C18.7702 19.1788 18.418 18.9579 18.0299 18.8246C17.6417 18.6913 17.2281 18.6491 16.8211 18.7013C16.414 18.7535 16.0245 18.8987 15.6826 19.1256C15.3406 19.3526 15.0556 19.6552 14.8494 20.01C14.7475 20.1823 14.6656 20.3655 14.605 20.5563C14.4906 20.9203 14.2363 21.2241 13.898 21.4007C13.5596 21.5772 13.165 21.6122 12.8009 21.4978C12.4368 21.3834 12.1331 21.1291 11.9565 20.7908C11.7799 20.4525 11.745 20.0578 11.8594 19.6937C11.9887 19.3039 12.1573 18.9282 12.3625 18.5725C12.9636 17.5441 13.8783 16.7352 14.9725 16.2644C16.0668 15.7935 17.2831 15.6856 18.4431 15.9563C19.444 16.1891 20.3597 16.6977 21.0863 17.4243C21.813 18.1509 22.3215 19.0666 22.5544 20.0675C22.8286 21.2312 22.7209 22.4523 22.2471 23.5501C21.7733 24.6478 20.9587 25.5638 19.9237 26.1625Z" fill="white"/>
<path d="M46 4.3125V25.875C45.9976 26.7665 45.7203 27.6356 45.2057 28.3637C44.6912 29.0917 43.9646 29.6433 43.125 29.9431V34.5C43.1236 34.7708 43.046 35.0358 42.9011 35.2646C42.7562 35.4934 42.5499 35.6767 42.3056 35.7938C42.1146 35.8918 41.9022 35.9412 41.6875 35.9375C41.3625 35.9402 41.0469 35.8282 40.7962 35.6213L37.375 32.89V14.375C37.3743 12.469 36.6168 10.6412 35.2691 9.29343C33.9213 7.94566 32.0935 7.18819 30.1875 7.1875H11.5V4.3125C11.5033 3.16978 11.9588 2.07482 12.7668 1.26679C13.5748 0.45876 14.6698 0.00333732 15.8125 0L41.6875 0C42.8302 0.00333732 43.9252 0.45876 44.7332 1.26679C45.5412 2.07482 45.9967 3.16978 46 4.3125Z" fill="white"/>
</svg>
