<svg width="22" height="24" viewBox="0 0 22 24" fill="none" xmlns="http://www.w3.org/2000/svg">
<path d="M1.7523 11.1134C2.15308 10.9975 2.57645 10.9352 3.01408 10.9352H18.9824C19.42 10.9352 19.8433 10.9975 20.2442 11.1134L21.1176 5.90719C21.3648 4.43386 20.9532 2.9348 19.9882 1.79442C19.0232 0.654047 17.613 0 16.1191 0H5.87744C4.38353 0 2.97335 0.654047 2.00838 1.79442C1.04331 2.9348 0.631657 4.43381 0.878876 5.90714L1.7523 11.1134Z" fill="white"/>
<path d="M18.9836 12.5H3.01527C1.36986 12.5 0.03125 13.8386 0.03125 15.4841V17.5636C0.03125 19.209 1.36986 20.5476 3.01527 20.5476H3.55114V23.9996H5.11634V20.5477H16.8825V23.9996H18.4477V20.5477H18.9836C20.629 20.5477 21.9676 19.2091 21.9676 17.5637V15.4842C21.9677 13.8387 20.629 12.5 18.9836 12.5Z" fill="white"/>
</svg>
