<svg width="22" height="22" viewBox="0 0 22 22" fill="none" xmlns="http://www.w3.org/2000/svg">
<path d="M20.0819 8.14179C19.6807 8.08352 19.2979 7.9355 18.9618 7.70875C18.6258 7.482 18.3453 7.18237 18.1411 6.83217C17.9369 6.48196 17.8144 6.09021 17.7826 5.68608C17.7508 5.28195 17.8106 4.87586 17.9575 4.49804C18.0509 4.25104 18.0647 3.98101 17.9969 3.72579C17.929 3.47058 17.7831 3.24298 17.5794 3.07492C16.6802 2.31981 15.6566 1.72662 14.5544 1.32179C14.3034 1.22856 14.0294 1.21691 13.7714 1.2885C13.5134 1.3601 13.2846 1.51129 13.1175 1.72054C12.8661 2.04205 12.5447 2.30209 12.1778 2.48093C11.811 2.65976 11.4082 2.75271 11 2.75271C10.5919 2.75271 10.1891 2.65976 9.82218 2.48093C9.4553 2.30209 9.13395 2.04205 8.88252 1.72054C8.71547 1.51129 8.48664 1.3601 8.22864 1.2885C7.97065 1.21691 7.69663 1.22856 7.44564 1.32179C6.42791 1.69555 5.47636 2.22934 4.62689 2.90304C4.41276 3.07256 4.25853 3.30617 4.18678 3.56968C4.11503 3.83319 4.12952 4.11274 4.22814 4.36742C4.38678 4.75523 4.45233 5.17482 4.41952 5.59254C4.38671 6.01026 4.25646 6.41448 4.03922 6.77276C3.82197 7.13105 3.52378 7.43344 3.16856 7.65566C2.81334 7.87789 2.41098 8.01378 1.99377 8.05242C1.7229 8.08138 1.46848 8.19654 1.26798 8.38096C1.06748 8.56537 0.931481 8.80928 0.880015 9.07679C0.752001 9.71046 0.687515 10.3553 0.687515 11.0018C0.686574 11.543 0.730264 12.0834 0.81814 12.6174C0.861875 12.8935 0.995341 13.1475 1.1979 13.3401C1.40046 13.5327 1.66084 13.6532 1.93876 13.683C2.36515 13.7231 2.77574 13.8646 3.13619 14.0959C3.49663 14.3272 3.79643 14.6414 4.0105 15.0123C4.22457 15.3832 4.34667 15.8 4.3666 16.2278C4.38652 16.6556 4.30368 17.082 4.12502 17.4712C4.00809 17.7243 3.97909 18.0093 4.04261 18.2808C4.10613 18.5524 4.25854 18.7949 4.47564 18.9699C5.36947 19.7113 6.38316 20.2949 7.47314 20.6955C7.61252 20.7438 7.75877 20.7694 7.90627 20.7712C8.10851 20.7707 8.3077 20.7218 8.48713 20.6285C8.66656 20.5352 8.82101 20.4002 8.93752 20.2349C9.18255 19.8779 9.51102 19.5861 9.8944 19.3848C10.2778 19.1835 10.7045 19.0789 11.1375 19.0799C11.5571 19.0805 11.9707 19.1789 12.3455 19.3675C12.7202 19.5561 13.0458 19.8296 13.2963 20.1662C13.4629 20.3901 13.6988 20.5526 13.9674 20.6285C14.236 20.7044 14.5222 20.6893 14.7813 20.5855C15.7779 20.1844 16.7058 19.63 17.5313 18.9424C17.7386 18.771 17.8863 18.5382 17.953 18.2775C18.0197 18.0169 18.002 17.7418 17.9025 17.4918C17.7408 17.109 17.6703 16.6938 17.6966 16.2791C17.7228 15.8644 17.8451 15.4614 18.0538 15.102C18.2625 14.7427 18.5518 14.4367 18.899 14.2084C19.2462 13.98 19.6418 13.8355 20.0544 13.7862C20.322 13.7492 20.5708 13.6279 20.7649 13.4401C20.9589 13.2522 21.0881 13.0074 21.1338 12.7412C21.2442 12.1677 21.304 11.5857 21.3125 11.0018C21.3126 10.3859 21.2551 9.77134 21.1406 9.16617C21.0942 8.90581 20.9669 8.6667 20.7769 8.48281C20.5868 8.29892 20.3436 8.1796 20.0819 8.14179ZM14.4375 11.0018C14.4375 11.6817 14.2359 12.3463 13.8582 12.9116C13.4805 13.4769 12.9436 13.9175 12.3155 14.1776C11.6874 14.4378 10.9962 14.5059 10.3294 14.3732C9.66258 14.2406 9.05008 13.9132 8.56934 13.4325C8.08859 12.9517 7.7612 12.3392 7.62857 11.6724C7.49593 11.0056 7.564 10.3144 7.82418 9.68632C8.08436 9.0582 8.52495 8.52133 9.09024 8.14362C9.65554 7.7659 10.3201 7.56429 11 7.56429C11.9117 7.56429 12.786 7.92646 13.4307 8.57111C14.0754 9.21577 14.4375 10.0901 14.4375 11.0018Z" fill="white"/>
</svg>
