<svg width="18" height="18" viewBox="0 0 18 18" fill="none" xmlns="http://www.w3.org/2000/svg">
<g clip-path="url(#clip0_196_8725)">
<path d="M9 0C6.67241 0 4.78818 1.88424 4.78818 4.21182C4.78818 6.53941 6.67241 8.42365 9 8.42365C11.3276 8.42365 13.2118 6.53941 13.2118 4.21182C13.2118 1.88424 11.3276 0 9 0Z" fill="white"/>
<path d="M10.6404 8.91406H7.35961C4.05666 8.91406 1.37439 11.5963 1.37439 14.8993V17.3377C1.37439 17.7146 1.66257 18.0027 2.03941 18.0027H15.9606C16.3374 18.0027 16.6256 17.7146 16.6256 17.3377V14.8993C16.6256 11.5963 13.9434 8.91406 10.6404 8.91406Z" fill="white"/>
</g>
<defs>
<clipPath id="clip0_196_8725">
<rect width="18" height="18" fill="white"/>
</clipPath>
</defs>
</svg>
