<svg width="17" height="17" viewBox="0 0 17 17" fill="none" xmlns="http://www.w3.org/2000/svg">
<path d="M15.9375 12.75V14.0781C15.9375 14.8107 15.3414 15.4062 14.6094 15.4062H3.1875C2.01556 15.4062 1.0625 14.4532 1.0625 13.2812C1.0625 13.2812 1.0625 4.25797 1.0625 4.25C1.0625 3.07806 2.01556 2.125 3.1875 2.125H13.0156C13.456 2.125 13.8125 2.482 13.8125 2.92188C13.8125 3.36175 13.456 3.71875 13.0156 3.71875H3.1875C2.89478 3.71875 2.65625 3.95675 2.65625 4.25C2.65625 4.54325 2.89478 4.78125 3.1875 4.78125H14.6094C15.3414 4.78125 15.9375 5.37678 15.9375 6.10938V7.4375H13.2812C11.8166 7.4375 10.625 8.62909 10.625 10.0938C10.625 11.5584 11.8166 12.75 13.2812 12.75H15.9375Z" fill="white"/>
<path d="M15.9375 8.5V11.6875H13.2812C12.401 11.6875 11.6875 10.974 11.6875 10.0938C11.6875 9.21347 12.401 8.5 13.2812 8.5H15.9375Z" fill="white"/>
</svg>
