<svg width="26" height="26" viewBox="0 0 26 26" fill="none" xmlns="http://www.w3.org/2000/svg">
<g opacity="0.15" clip-path="url(#clip0_107_277)">
<path d="M8.42968 16.8088H22.1916C22.5324 16.8088 22.8313 16.5834 22.9236 16.2561L25.9706 5.59189C26.0361 5.36198 25.9913 5.11502 25.847 4.92399C25.7026 4.73356 25.4781 4.62109 25.2385 4.62109H6.67118L6.12667 2.1709C6.04931 1.82198 5.73986 1.57422 5.38281 1.57422H0.761718C0.34079 1.57422 0 1.91501 0 2.33594C0 2.75706 0.34079 3.09766 0.761718 3.09766H4.77145L7.52217 15.4756C6.71284 15.8275 6.14453 16.633 6.14453 17.5705C6.14453 18.8305 7.16967 19.8557 8.42968 19.8557H22.1916C22.6127 19.8557 22.9533 19.5151 22.9533 19.0939C22.9533 18.673 22.6127 18.3322 22.1916 18.3322H8.42968C8.01014 18.3322 7.66796 17.9908 7.66796 17.5705C7.66796 17.1502 8.01014 16.8088 8.42968 16.8088Z" fill="white"/>
<path d="M7.66797 22.1406C7.66797 23.4008 8.69311 24.4258 9.95332 24.4258C11.2133 24.4258 12.2385 23.4008 12.2385 22.1406C12.2385 20.8806 11.2133 19.8555 9.95332 19.8555C8.69311 19.8555 7.66797 20.8806 7.66797 22.1406Z" fill="white"/>
<path d="M18.3831 22.1406C18.3831 23.4008 19.4082 24.4258 20.6682 24.4258C21.9284 24.4258 22.9534 23.4008 22.9534 22.1406C22.9534 20.8806 21.9284 19.8555 20.6682 19.8555C19.4082 19.8555 18.3831 20.8806 18.3831 22.1406Z" fill="white"/>
</g>
<defs>
<clipPath id="clip0_107_277">
<rect width="26" height="26" fill="white"/>
</clipPath>
</defs>
</svg>
