<svg width="19" height="15" viewBox="0 0 19 15" fill="none" xmlns="http://www.w3.org/2000/svg">
<path d="M1.66992 0.820312H17.3301C18.2527 0.820312 19 1.57222 19 2.49023V12.5098C19 13.4332 18.2472 14.1797 17.3301 14.1797H1.66992C0.75499 14.1797 0 13.4364 0 12.5098V2.49023C0 1.57386 0.744303 0.820312 1.66992 0.820312ZM1.90379 1.93359C2.24497 2.27296 8.11645 8.11353 8.31918 8.31518C8.63461 8.63061 9.05395 8.80428 9.5 8.80428C9.94605 8.80428 10.3654 8.63057 10.6819 8.31414C10.8182 8.17851 16.6249 2.40243 17.0962 1.93359H1.90379ZM17.8867 12.2832V2.71753L13.0759 7.50297L17.8867 12.2832ZM17.0955 13.0664L12.2866 8.28809L11.468 9.10238C10.9423 9.62807 10.2434 9.91756 9.5 9.91756C8.75659 9.91756 8.05767 9.62807 7.53302 9.10342L6.71338 8.28809L1.90449 13.0664H17.0955ZM1.11328 12.2832L5.92407 7.50297L1.11328 2.71753V12.2832Z" fill="white"/>
</svg>
