<svg width="19" height="15" viewBox="0 0 19 15" fill="none" xmlns="http://www.w3.org/2000/svg">
<path d="M16.0843 1.45832C14.8734 0.902681 13.5747 0.49329 12.217 0.258796C12.1922 0.254269 12.1675 0.265587 12.1548 0.288187C11.9878 0.585248 11.8028 0.972744 11.6732 1.27734C10.2129 1.05869 8.75996 1.05869 7.32954 1.27734C7.19995 0.96599 7.00825 0.585248 6.84047 0.288187C6.82775 0.26633 6.80303 0.255011 6.77832 0.258796C5.4213 0.492511 4.12269 0.901902 2.91092 1.45832C2.90042 1.46285 2.89144 1.47038 2.88547 1.48018C0.422296 5.16013 -0.252501 8.74964 0.0785143 12.2946C0.0799987 12.312 0.0897584 12.3285 0.103229 12.3391C1.72836 13.5326 3.30261 14.2571 4.84759 14.7374C4.8723 14.7449 4.8985 14.7359 4.91424 14.7155C5.27969 14.2164 5.60547 13.6902 5.8848 13.1368C5.90127 13.1044 5.88554 13.0659 5.85184 13.0531C5.33509 12.8571 4.84306 12.6181 4.36973 12.3467C4.33229 12.3248 4.32928 12.2713 4.36376 12.2456C4.46336 12.171 4.563 12.0933 4.65811 12.0149C4.67533 12.0006 4.6993 11.9976 4.71952 12.0066C7.82899 13.4263 11.1954 13.4263 14.2681 12.0066C14.2884 11.9968 14.3123 11.9999 14.3303 12.0142C14.4254 12.0926 14.525 12.171 14.6254 12.2456C14.6598 12.2712 14.6576 12.3248 14.6202 12.3467C14.1468 12.6233 13.6548 12.8571 13.1373 13.0523C13.1036 13.0651 13.0886 13.1044 13.1051 13.1367C13.3905 13.6894 13.7162 14.2156 14.0749 14.7148C14.0899 14.7359 14.1169 14.7449 14.1416 14.7374C15.6941 14.2571 17.2683 13.5326 18.8935 12.3391C18.9077 12.3285 18.9167 12.3127 18.9182 12.2954C19.3143 8.19697 18.2546 4.63689 16.109 1.48092C16.1038 1.47038 16.0948 1.46285 16.0843 1.45832ZM6.34922 10.1361C5.41306 10.1361 4.64167 9.27663 4.64167 8.22109C4.64167 7.16559 5.39807 6.3061 6.34922 6.3061C7.30779 6.3061 8.07173 7.17313 8.05673 8.22109C8.05673 9.27663 7.3003 10.1361 6.34922 10.1361ZM12.6625 10.1361C11.7264 10.1361 10.955 9.27663 10.955 8.22109C10.955 7.16559 11.7114 6.3061 12.6625 6.3061C13.6211 6.3061 14.385 7.17313 14.3701 8.22109C14.3701 9.27663 13.6212 10.1361 12.6625 10.1361Z" fill="#5865F2"/>
</svg>
