<svg width="9" height="17" viewBox="0 0 9 17" fill="none" xmlns="http://www.w3.org/2000/svg">
<path d="M2.40692 9.67553C2.3446 9.67553 1.03722 9.67593 0.434242 9.67533C0.123822 9.67513 0.0130711 9.56359 0.0130711 9.25118C0.0126742 8.44873 0.0124757 7.64629 0.0130711 6.84384C0.0132696 6.5354 0.130372 6.41771 0.436822 6.41751C1.0398 6.41711 2.34003 6.41731 2.40692 6.41731C2.40692 6.36233 2.40672 5.20381 2.40692 4.6703C2.40731 3.88155 2.54804 3.12654 2.94876 2.43524C3.35902 1.72767 3.95604 1.24298 4.72117 0.96273C5.21122 0.783108 5.71992 0.711457 6.23993 0.71106C6.89054 0.710663 7.54115 0.711258 8.19196 0.712449C8.47162 0.712846 8.59567 0.836498 8.59626 1.11814C8.59745 1.87295 8.59745 2.62776 8.59626 3.38238C8.59587 3.667 8.47698 3.78132 8.19097 3.7845C7.65766 3.79025 7.12395 3.78668 6.59124 3.80811C6.05316 3.80811 5.77013 4.0709 5.77013 4.62783C5.75723 5.21691 5.76477 5.80659 5.76477 6.41711C5.81519 6.41711 7.34645 6.41691 8.06216 6.41711C8.38727 6.41711 8.49841 6.52885 8.49841 6.85575C8.49841 7.65383 8.49821 8.45211 8.49762 9.25019C8.49742 9.57232 8.39302 9.67513 8.06593 9.67533C7.35022 9.67573 5.82491 9.67553 5.75822 9.67553V16.135C5.75822 16.4794 5.64985 16.5891 5.31006 16.5891C4.48161 16.5891 3.65296 16.5893 2.82452 16.5891C2.52422 16.5891 2.40712 16.4724 2.40712 16.1721C2.40692 14.0684 2.40692 9.74936 2.40692 9.67553Z" fill="white"/>
</svg>
