<svg width="17" height="17" viewBox="0 0 17 17" fill="none" xmlns="http://www.w3.org/2000/svg">
<g clip-path="url(#clip0_196_4327)">
<path d="M16.7235 5.30318C16.684 4.43889 16.5467 3.84866 16.346 3.33226C16.1422 2.79047 15.8226 2.29972 15.4095 1.89409C15.004 1.48103 14.5131 1.16125 13.9713 0.957324C13.4548 0.756738 12.8647 0.619587 12.0004 0.580312C11.1345 0.540666 10.8578 0.53125 8.65277 0.53125C6.44769 0.53125 6.17103 0.540666 5.30513 0.580065C4.44084 0.619587 3.85073 0.756862 3.33422 0.957572C2.79242 1.16138 2.30168 1.48103 1.89605 1.89409C1.48298 2.2996 1.16321 2.79035 0.959277 3.33214C0.758692 3.84866 0.62154 4.43889 0.582265 5.30306C0.542619 6.16908 0.533203 6.44561 0.533203 8.65069C0.533203 10.8559 0.542619 11.1326 0.582265 11.9985C0.621664 12.8626 0.758939 13.4529 0.959649 13.9694C1.16346 14.511 1.4831 15.0019 1.89617 15.4074C2.30168 15.8205 2.79255 16.1401 3.33434 16.3439C3.85073 16.5448 4.44097 16.6819 5.30526 16.7214C6.17128 16.761 6.44781 16.7703 8.65289 16.7703C10.858 16.7703 11.1346 16.761 12.0005 16.7214C12.8648 16.6819 13.4549 16.5448 13.9714 16.3439C15.0621 15.9222 15.9243 15.06 16.346 13.9694C16.5468 13.4529 16.684 12.8626 16.7235 11.9985C16.7629 11.1324 16.7723 10.8559 16.7723 8.65082C16.7723 6.44561 16.7629 6.16908 16.7235 5.30318ZM15.2619 11.9319C15.2259 12.7236 15.0936 13.1535 14.9824 13.4396C14.7092 14.1478 14.1496 14.7074 13.4414 14.9806C13.1554 15.0917 12.7254 15.224 11.9337 15.2601C11.0778 15.2993 10.8209 15.3074 8.65277 15.3074C6.48449 15.3074 6.22778 15.2993 5.37166 15.2601C4.5801 15.224 4.15019 15.0917 3.86399 14.9806C3.51138 14.8504 3.19236 14.6429 2.93044 14.3731C2.66072 14.1112 2.4532 13.7923 2.32299 13.4396C2.21185 13.1535 2.07953 12.7236 2.04348 11.9319C2.00445 11.0758 1.99615 10.819 1.99615 8.65094C1.99615 6.48278 2.00445 6.22607 2.04348 5.36983C2.07966 4.57815 2.21185 4.14823 2.32299 3.86216C2.4532 3.50943 2.66085 3.1904 2.93044 2.92849C3.19236 2.65877 3.51138 2.45125 3.86411 2.32116C4.15019 2.2099 4.5801 2.0777 5.37179 2.04153C6.2279 2.0025 6.48473 1.9942 8.65277 1.9942H8.65264C10.8207 1.9942 11.0775 2.0025 11.9337 2.04165C12.7254 2.0777 13.1552 2.21002 13.4414 2.32116C13.794 2.45137 14.1131 2.65889 14.375 2.92849C14.6447 3.1904 14.8522 3.50943 14.9823 3.86216C15.0936 4.14823 15.2259 4.57815 15.2619 5.36983C15.301 6.22595 15.3093 6.48278 15.3093 8.65082C15.3093 10.819 15.3011 11.0757 15.2619 11.9319Z" fill="white"/>
<path d="M8.65283 4.48047C6.35012 4.48047 4.4834 6.34731 4.4834 8.65002C4.4834 10.9527 6.35012 12.8195 8.65283 12.8195C10.9557 12.8195 12.8224 10.9527 12.8224 8.65002C12.8224 6.34731 10.9557 4.48047 8.65283 4.48047ZM8.65283 11.3565C7.15816 11.3564 5.94635 10.1447 5.94647 8.6499C5.94647 7.15523 7.15816 5.94342 8.65295 5.94342C10.1477 5.94354 11.3594 7.15523 11.3594 8.6499C11.3594 10.1447 10.1476 11.3565 8.65283 11.3565Z" fill="white"/>
<path d="M13.9614 4.31818C13.9614 4.85626 13.5252 5.29249 12.9871 5.29249C12.4489 5.29249 12.0127 4.85626 12.0127 4.31818C12.0127 3.77998 12.4489 3.34375 12.9871 3.34375C13.5252 3.34375 13.9614 3.77998 13.9614 4.31818Z" fill="white"/>
</g>
<defs>
<clipPath id="clip0_196_4327">
<rect width="16.2391" height="16.2391" fill="white" transform="translate(0.533203 0.53125)"/>
</clipPath>
</defs>
</svg>
