<svg width="19" height="19" viewBox="0 0 19 19" fill="none" xmlns="http://www.w3.org/2000/svg">
<g clip-path="url(#clip0_196_4318)">
<path d="M18.6743 4.05978C18.0033 4.35411 17.2884 4.54921 16.543 4.64393C17.3098 4.18608 17.8951 3.4666 18.1702 2.59938C17.4553 3.02566 16.6659 3.32676 15.8246 3.49479C15.1457 2.77192 14.1781 2.32422 13.1226 2.32422C11.0746 2.32422 9.42593 3.98647 9.42593 6.02426C9.42593 6.31747 9.45074 6.5994 9.51163 6.86779C6.43635 6.71781 3.71517 5.24388 1.88714 2.99859C1.56799 3.5523 1.38079 4.18608 1.38079 4.86835C1.38079 6.14944 2.04051 7.28505 3.02388 7.94251C2.42957 7.93123 1.84654 7.75869 1.3526 7.48691C1.3526 7.49819 1.3526 7.51285 1.3526 7.52751C1.3526 9.32509 2.63481 10.8182 4.31624 11.1621C4.01514 11.2445 3.68697 11.2839 3.3464 11.2839C3.10958 11.2839 2.87051 11.2704 2.64609 11.2208C3.12537 12.6857 4.4854 13.7627 6.10254 13.7976C4.84401 14.7821 3.24604 15.3753 1.51612 15.3753C1.21276 15.3753 0.92181 15.3618 0.630859 15.3245C2.26943 16.3812 4.21136 16.9845 6.30553 16.9845C13.1124 16.9845 16.8339 11.346 16.8339 6.45843C16.8339 6.29491 16.8283 6.13703 16.8204 5.98028C17.5545 5.45927 18.1714 4.80858 18.6743 4.05978Z" fill="white"/>
</g>
<defs>
<clipPath id="clip0_196_4318">
<rect width="18.0435" height="18.0435" fill="white" transform="translate(0.630859 0.632812)"/>
</clipPath>
</defs>
</svg>
